<svg width="917" height="489" viewBox="0 0 917 489" fill="none" xmlns="http://www.w3.org/2000/svg">
<path d="M115.544 356.178C178.916 417.352 282.659 417.352 346.031 356.178L444.085 261.526L481.641 297.779C512.189 327.268 562.204 327.268 592.752 297.779C623.3 268.291 623.3 220.01 592.752 190.522C562.204 161.033 512.189 161.033 481.641 190.522L443.546 227.296L344.055 131.256C281.761 71.1222 179.814 71.1222 117.52 131.256L-8.78108e-05 244.7L115.484 356.178L115.544 356.178ZM499.491 207.695C520.275 187.631 554.238 187.631 574.962 207.695C595.747 227.758 595.747 260.543 574.962 280.549C554.178 300.612 520.216 300.612 499.491 280.549L461.755 244.122L499.491 207.695ZM135.01 148.775C187.721 97.8931 273.914 97.8932 326.625 148.775L425.996 244.7L328.302 339.005C274.693 390.755 186.942 390.755 133.333 339.005L35.6394 244.7L135.01 148.775Z" fill="#ffd1dd" fill-opacity="0.2"/>
<path d="M175.92 297.776C206.109 326.918 255.585 326.918 285.773 297.776L323.509 261.349L484.635 416.887C583.108 511.944 744.174 511.944 842.647 416.887C941.119 321.83 941.119 166.35 842.647 71.293C744.174 -23.7642 583.108 -23.7642 484.635 71.293L322.97 227.351L284.875 190.577C255.165 161.898 206.588 161.898 176.938 190.577L120.934 244.639L175.98 297.776L175.92 297.776ZM503.084 89.1596C591.374 3.93192 735.788 3.93193 824.078 89.1596C912.368 174.387 912.368 313.793 824.078 399.02C735.788 484.248 591.374 484.248 503.084 399.02L342.557 244.061L503.084 89.1017L503.084 89.1596ZM194.429 208.212C214.435 188.9 247.199 188.9 267.265 208.212L305.061 244.697L267.924 280.546C247.558 300.205 214.195 300.205 193.83 280.546L156.693 244.697L194.489 208.212L194.429 208.212Z" fill="#ffd1dd" fill-opacity="0.2"/>
</svg>
