<svg id="Layer_1" data-name="Layer 1" xmlns="http://www.w3.org/2000/svg" viewBox="0 0 120 120">
  <defs>
    <style>.cls-1{fill:none;}</style>
  </defs>
  <title>Artboard 1</title>
  <rect class="cls-1" width="120" height="120"/>
  <path d="M120,53.5c-.12,1.19-.22,2.39-.35,3.58a52.77,52.77,0,0,1-8.12,23.09,59.18,59.18,0,0,1-18,17.8,104.42,104.42,0,0,1-21.2,10.38l-.45.12c0-2.2,0-4.37,0-6.53,0-.16.3-.38.5-.47,2.47-1.16,5-2.13,7.42-3.45a45,45,0,0,0,21.44-26,33.14,33.14,0,0,0,1.61-11.58,5.85,5.85,0,0,0-.85-3.15,1.42,1.42,0,0,0-2-.61,8.73,8.73,0,0,0-1.22.7,18.6,18.6,0,0,1-10.06,3.18c-6.07.33-11-1.94-15.18-6.29A21.55,21.55,0,0,1,67.38,42a22.13,22.13,0,0,1,4.3-16.85c3.49-4.59,7.88-8,13.56-9.27a25,25,0,0,1,23.14,5.81C114.55,27,117.93,34,119.26,41.93c.31,1.89.43,3.81.64,5.71,0,.2.07.4.1.59Z"/>
  <path d="M4.77,108.51c0-2.24,0-4.36,0-6.48,0-.45.29-.48.56-.58a50.27,50.27,0,0,0,9.38-4.58A45.12,45.12,0,0,0,34.53,70.43a28.75,28.75,0,0,0,1.06-10.72,7.49,7.49,0,0,0-.86-2.51A1.23,1.23,0,0,0,33,56.64a6.77,6.77,0,0,0-1.4.76,18.75,18.75,0,0,1-10.12,3.19C15,60.94,9.83,58.28,5.6,53.5A21.66,21.66,0,0,1,.06,37.05c.46-7,3.8-12.37,9.07-16.7a23.21,23.21,0,0,1,17.55-5.1c6.7.62,12.16,3.7,16.74,8.51a33,33,0,0,1,8.63,18,53.59,53.59,0,0,1-2.67,27.88A57.71,57.71,0,0,1,28,96.86,96.62,96.62,0,0,1,6.84,107.74Z"/>
</svg>